HIERARCHY
ROOT Hips
{
	OFFSET 0.000000 0.000000 0.000000
	CHANNELS 6 Xposition Yposition Zposition Xrotation Yrotation Zrotation
	JOINT LeftUpLeg_virtual
	{
		OFFSET 0.000000 0.000000 0.000000
		CHANNELS 3 Xrotation Yrotation Zrotation
		JOINT LeftUpLeg
		{
			OFFSET 11.394100 -6.187798 -0.413800
			CHANNELS 3 Xrotation Yrotation Zrotation
			JOINT LeftLeg
			{
				OFFSET 0.430247 -32.302673 3.732800
				CHANNELS 3 Xrotation Yrotation Zrotation
				JOINT LeftFoot
				{
					OFFSET -0.430247 -48.264931 -6.423300
					CHANNELS 3 Xrotation Yrotation Zrotation
					JOINT LeftToeBase
					{
						OFFSET 4.230900 -16.068199 23.438400
						CHANNELS 3 Xrotation Yrotation Zrotation
						JOINT LeftToe_End
						{
							OFFSET 4.510700 0.695400 19.974600
							CHANNELS 3 Xrotation Yrotation Zrotation
							End Site
							{
								OFFSET 0 0 0
							}
						}
					}
				}
			}
		}
	}
	JOINT RightUpLeg_virtual
	{
		OFFSET 0.000000 0.000000 0.000000
		CHANNELS 3 Xrotation Yrotation Zrotation
		JOINT RightUpLeg
		{
			OFFSET -11.333700 -6.187798 -0.413800
			CHANNELS 3 Xrotation Yrotation Zrotation
			JOINT RightLeg
			{
				OFFSET -0.430392 -32.302628 3.733000
				CHANNELS 3 Xrotation Yrotation Zrotation
				JOINT RightFoot
				{
					OFFSET 0.430392 -48.264973 -6.423500
					CHANNELS 3 Xrotation Yrotation Zrotation
					JOINT RightToeBase
					{
						OFFSET -4.230900 -16.068199 23.438400
						CHANNELS 3 Xrotation Yrotation Zrotation
						JOINT RightToe_End
						{
							OFFSET -4.510700 0.695400 19.974600
							CHANNELS 3 Xrotation Yrotation Zrotation
							End Site
							{
								OFFSET 0 0 0
							}
						}
					}
				}
			}
		}
	}
	JOINT Spine_virtual
	{
		OFFSET 0.000000 0.000000 0.000000
		CHANNELS 3 Xrotation Yrotation Zrotation
		JOINT Spine
		{
			OFFSET -0.002400 12.777504 0.315300
			CHANNELS 3 Xrotation Yrotation Zrotation
			JOINT Spine1
			{
				OFFSET -0.002067 5.816869 0.032633
				CHANNELS 3 Xrotation Yrotation Zrotation
				JOINT Spine1_split
				{
					OFFSET -0.002067 5.816869 0.032633
					CHANNELS 3 Xrotation Yrotation Zrotation
					JOINT Spine2
					{
						OFFSET -0.002067 5.816869 0.032633
						CHANNELS 3 Xrotation Yrotation Zrotation
						JOINT Neck_virtual
						{
							OFFSET 0.000000 0.000000 0.000000
							CHANNELS 3 Xrotation Yrotation Zrotation
							JOINT Neck
							{
								OFFSET -0.003700 21.199493 -0.826900
								CHANNELS 3 Xrotation Yrotation Zrotation
								JOINT Head
								{
									OFFSET 0.000000 20.442200 4.834800
									CHANNELS 3 Xrotation Yrotation Zrotation
									JOINT HeadTop_End
									{
										OFFSET 0.000000 34.668396 4.968400
										CHANNELS 3 Xrotation Yrotation Zrotation
										End Site
										{
											OFFSET 0 0 0
										}
									}
								}
							}
						}
						JOINT LeftShoulder_virtual
						{
							OFFSET 0.000000 0.000000 0.000000
							CHANNELS 3 Xrotation Yrotation Zrotation
							JOINT LeftShoulder
							{
								OFFSET 3.288150 8.794197 -1.372250
								CHANNELS 3 Xrotation Yrotation Zrotation
								JOINT LeftShoulder_split
								{
									OFFSET 3.288150 8.794197 -1.372250
									CHANNELS 3 Xrotation Yrotation Zrotation
									JOINT LeftArm
									{
										OFFSET 11.953299 -2.279007 -0.146200
										CHANNELS 3 Xrotation Yrotation Zrotation
										JOINT LeftForeArm
										{
											OFFSET 18.448900 0.000000 0.000000
											CHANNELS 3 Xrotation Yrotation Zrotation
											JOINT LeftHand
											{
												OFFSET 29.527798 0.000000 0.000000
												CHANNELS 3 Xrotation Yrotation Zrotation
												End Site
												{
													OFFSET 0 0 0
												}
											}
										}
									}
								}
							}
						}
						JOINT RightShoulder_virtual
						{
							OFFSET 0.000000 0.000000 0.000000
							CHANNELS 3 Xrotation Yrotation Zrotation
							JOINT RightShoulder
							{
								OFFSET -3.249400 8.794197 -1.372250
								CHANNELS 3 Xrotation Yrotation Zrotation
								JOINT RightShoulder_split
								{
									OFFSET -3.249400 8.794197 -1.372250
									CHANNELS 3 Xrotation Yrotation Zrotation
									JOINT RightArm
									{
										OFFSET -11.953299 -2.279007 -0.146200
										CHANNELS 3 Xrotation Yrotation Zrotation
										JOINT RightForeArm
										{
											OFFSET -18.448900 0.000000 0.000000
											CHANNELS 3 Xrotation Yrotation Zrotation
											JOINT RightHand
											{
												OFFSET -29.527802 0.000000 0.000000
												CHANNELS 3 Xrotation Yrotation Zrotation
												End Site
												{
													OFFSET 0 0 0
												}
											}
										}
									}
								}
							}
						}
					}
				}
			}
		}
	}
}
MOTION
Frames: 9
Frame Time: 0.03333333
-0.910089 101.879257 -0.235947 0.000000 0.000000 0.000000 -5.612982 -2.918882 0.611155 -4.666435 5.059446 7.545111 14.496310 12.253686 1.409875 -5.001176 3.568717 -8.041083 3.230695 0.663499 -2.064404 0.000000 0.000000 0.000000 -5.398116 -2.326545 0.514356 -3.066203 -8.688234 -8.264703 12.811228 -9.529781 -0.446436 -2.302834 -4.914894 3.826678 -2.979199 -0.325501 -2.176262 0.000000 0.000000 0.000000 -4.914926 -2.970655 -0.016334 3.525131 1.651910 -2.005253 1.281152 0.203319 0.158276 0.888633 -1.228860 0.139791 0.000000 0.000000 0.000000 0.773320 0.709022 -0.002738 3.105778 0.333220 -0.089216 18.298405 -11.471719 0.247744 0.000000 0.000000 0.000000 0.868462 0.524381 -0.000923 2.809196 -3.923411 -12.503571 -1.296059 -0.961260 -1.723495 -3.999298 -7.827694 -58.854080 -1.265196 -13.008675 0.360166 0.000000 0.000000 0.000000 0.840097 0.350481 0.037202 2.398205 0.716094 15.512767 -0.433046 1.930351 -2.138941 -1.572563 8.512962 64.809889 0.182096 15.790810 1.072427 0.000000 0.000000 0.000000 
-0.870447 101.888382 -0.529129 0.000000 0.000000 0.000000 -5.743016 -2.805085 0.645225 -4.742856 4.916865 7.499728 14.627805 12.134775 1.412445 -4.968371 3.398119 -8.140353 3.149060 0.656322 -2.020798 0.000000 0.000000 0.000000 -5.531194 -2.102210 0.541420 -3.054069 -8.787957 -8.309723 12.718062 -9.486742 -0.493877 -2.304194 -5.040379 3.748289 -2.547981 -0.361475 -2.120640 0.000000 0.000000 0.000000 -4.969180 -2.679120 0.095849 3.580583 1.736539 -1.950072 1.299209 0.241287 0.134320 0.968132 -0.954938 0.223587 0.000000 0.000000 0.000000 0.722723 0.707541 -0.001085 3.128509 0.234271 -0.103672 18.282632 -11.540473 0.314031 0.000000 0.000000 0.000000 0.861091 0.547716 -0.039279 2.784959 -3.795551 -12.579853 -1.442317 -0.534423 -1.979302 -3.201722 -7.171320 -58.693400 -1.255812 -12.472154 0.383461 0.000000 0.000000 0.000000 0.875540 0.406235 0.012478 2.375578 0.901849 15.505691 -0.510725 2.306119 -2.326548 -2.270247 8.841220 64.767522 0.251066 16.407784 0.952817 0.000000 0.000000 0.000000 
-0.897147 101.808487 -0.878174 0.000000 0.000000 0.000000 -5.956993 -2.244077 0.776894 -4.986553 4.761776 7.383381 15.005915 11.960921 1.375132 -5.144670 3.089583 -8.128536 3.041628 0.642311 -1.941663 0.000000 0.000000 0.000000 -5.764754 -1.444272 0.662703 -3.141889 -8.869999 -8.407029 13.089918 -9.477352 -0.517378 -2.544322 -5.441587 3.630844 -2.303428 -0.413275 -2.085242 0.000000 0.000000 0.000000 -5.178733 -2.091594 0.267682 3.766738 1.878845 -1.863317 1.330707 0.294047 0.123265 1.031526 -0.888092 0.257727 0.000000 0.000000 0.000000 0.683420 0.726441 0.016243 3.061496 0.099031 -0.109014 18.225416 -11.822425 0.476663 0.000000 0.000000 0.000000 0.876135 0.579910 -0.061003 2.757888 -3.705977 -12.617338 -1.637138 -0.365994 -2.037766 -2.212483 -6.044911 -58.734006 -1.150114 -11.588604 0.426456 0.000000 0.000000 0.000000 0.928552 0.480789 0.008024 2.335828 1.132446 15.537760 -0.437673 2.422637 -2.393652 -3.278119 9.680162 64.447220 0.334614 17.425930 0.834073 0.000000 0.000000 0.000000 
-0.997463 101.666367 -1.217911 0.000000 0.000000 0.000000 -6.225591 -1.348551 0.965486 -5.344701 4.620044 7.233786 15.593385 11.746025 1.312732 -5.527713 2.696172 -8.006795 2.941161 0.623427 -1.849068 0.000000 0.000000 0.000000 -6.087304 -0.508332 0.850971 -3.290695 -8.919752 -8.520140 13.828854 -9.494492 -0.525899 -3.027176 -6.066708 3.464787 -2.176162 -0.482875 -2.062835 0.000000 0.000000 0.000000 -5.497349 -1.326321 0.460716 4.042638 2.064808 -1.767391 1.360505 0.350304 0.125141 1.065496 -0.906296 0.254442 0.000000 0.000000 0.000000 0.665512 0.761634 0.045468 2.915307 -0.052000 -0.111224 18.151480 -12.278812 0.717148 0.000000 0.000000 0.000000 0.915174 0.619384 -0.055070 2.743153 -3.652654 -12.598255 -1.743769 -0.504718 -1.930456 -1.187100 -4.683104 -58.944587 -0.969424 -10.626116 0.465238 0.000000 0.000000 0.000000 0.987091 0.557456 0.025008 2.282728 1.371291 15.638584 -0.281727 2.297963 -2.319343 -4.320002 10.765234 63.935468 0.428129 18.675416 0.732958 0.000000 0.000000 0.000000 
-1.134685 101.477776 -1.577526 0.000000 0.000000 0.000000 -6.526233 -0.294256 1.165715 -5.762603 4.504765 7.111566 16.313441 11.495700 1.241977 -6.050981 2.273757 -7.827809 2.892628 0.602534 -1.768215 0.000000 0.000000 0.000000 -6.467522 0.479275 1.059303 -3.493854 -8.914394 -8.591079 14.745062 -9.534133 -0.528191 -3.647191 -6.836496 3.218584 -2.014696 -0.562544 -2.049436 0.000000 0.000000 0.000000 -5.900998 -0.496635 0.647193 4.352807 2.285528 -1.674891 1.378990 0.408103 0.141723 1.065813 -0.907167 0.263100 0.000000 0.000000 0.000000 0.676586 0.811421 0.084576 2.745035 -0.213283 -0.112105 18.094544 -12.856655 1.014663 0.000000 0.000000 0.000000 0.967616 0.669388 -0.026022 2.752320 -3.606113 -12.548254 -1.728169 -0.766544 -1.733544 -0.182166 -3.229584 -59.287729 -0.748193 -9.725093 0.467870 0.000000 0.000000 0.000000 1.040198 0.623497 0.059682 2.229345 1.599663 15.805287 -0.069790 2.132657 -2.249114 -5.226938 11.823961 63.387263 0.510012 20.082665 0.672368 0.000000 0.000000 0.000000 
-1.283160 101.279533 -1.876942 0.000000 0.000000 0.000000 -6.833433 0.723080 1.336906 -6.172912 4.438978 7.061571 17.067838 11.231039 1.166580 -6.656247 1.881480 -7.631034 2.918436 0.582814 -1.709565 0.000000 0.000000 0.000000 -6.860776 1.371675 1.247352 -3.711713 -8.876872 -8.585194 15.656766 -9.577831 -0.519233 -4.184465 -7.647981 2.947442 -1.774083 -0.635041 -2.035155 0.000000 0.000000 0.000000 -6.320355 0.320112 0.801378 4.647379 2.530005 -1.591500 1.375061 0.467347 0.170846 1.108244 -0.928035 0.217862 0.000000 0.000000 0.000000 0.705654 0.876196 0.129328 2.611574 -0.367517 -0.123144 18.073831 -13.510383 1.354755 0.000000 0.000000 0.000000 1.018200 0.731173 0.024646 2.786373 -3.553728 -12.458626 -1.660032 -1.064732 -1.550079 0.795117 -1.835159 -59.662768 -0.535184 -8.959554 0.418809 0.000000 0.000000 0.000000 1.082736 0.677047 0.107623 2.185688 1.818644 16.010204 0.157555 2.030005 -2.202171 -5.887827 12.672519 62.934633 0.569185 21.563141 0.661199 0.000000 0.000000 0.000000 
-1.425505 101.116272 -2.139637 0.000000 0.000000 0.000000 -7.142803 1.587290 1.456426 -6.547817 4.428481 7.093418 17.778369 10.967371 1.083950 -7.262551 1.547043 -7.441431 2.983194 0.567278 -1.661507 0.000000 0.000000 0.000000 -7.241094 2.136221 1.388952 -3.896210 -8.820038 -8.490545 16.388387 -9.605691 -0.515881 -4.419700 -8.431512 2.765836 -1.573189 -0.677028 -2.024251 0.000000 0.000000 0.000000 -6.716528 1.094012 0.910795 4.894905 2.786594 -1.513760 1.353011 0.537983 0.207180 1.162324 -0.957247 0.207750 0.000000 0.000000 0.000000 0.745271 0.948168 0.180507 2.558685 -0.499618 -0.139343 18.089524 -14.204508 1.722736 0.000000 0.000000 0.000000 1.059186 0.799564 0.083356 2.834759 -3.513199 -12.328622 -1.594232 -1.311958 -1.449543 1.814481 -0.540612 -59.974532 -0.367322 -8.361101 0.328273 0.000000 0.000000 0.000000 1.106294 0.722512 0.154659 2.147610 2.035411 16.205472 0.369893 2.010569 -2.213430 -6.348924 13.221120 62.661815 0.605966 23.031191 0.671382 0.000000 0.000000 0.000000 
-1.551360 101.001205 -2.376137 0.000000 0.000000 0.000000 -7.445789 2.280992 1.535691 -6.851591 4.468400 7.200484 18.411130 10.697102 0.986122 -7.829442 1.281598 -7.281826 3.033839 0.559606 -1.613181 0.000000 0.000000 0.000000 -7.561494 2.742332 1.482364 -4.011820 -8.738379 -8.334178 16.790091 -9.582743 -0.545584 -4.294090 -9.132438 2.750133 -1.526453 -0.686971 -2.013086 0.000000 0.000000 0.000000 -7.071335 1.781434 0.985386 5.081355 3.040743 -1.438693 1.332487 0.623228 0.241993 1.160694 -0.994009 0.235924 0.000000 0.000000 0.000000 0.777666 1.020753 0.232074 2.603203 -0.602601 -0.175275 18.096209 -14.911452 2.098610 0.000000 0.000000 0.000000 1.087564 0.872891 0.133428 2.883667 -3.517149 -12.155765 -1.521777 -1.447102 -1.480289 2.865302 0.651185 -60.200379 -0.262367 -7.992604 0.217454 0.000000 0.000000 0.000000 1.110295 0.772302 0.192581 2.120909 2.255371 16.342452 0.538115 2.048074 -2.247400 -6.643817 13.544388 62.557047 0.615518 24.435982 0.695061 0.000000 0.000000 0.000000 
-1.642939 100.940666 -2.608173 0.000000 0.000000 0.000000 -7.727170 2.836689 1.588325 -7.078887 4.516203 7.330326 18.958819 10.413855 0.876727 -8.334953 1.103535 -7.159479 3.055906 0.559013 -1.554290 0.000000 0.000000 0.000000 -7.813809 3.222469 1.531658 -4.020057 -8.677265 -8.181149 16.890928 -9.508408 -0.608311 -3.899087 -9.715585 2.895222 -1.575348 -0.667848 -1.983591 0.000000 0.000000 0.000000 -7.324790 2.379600 1.054040 5.215868 3.272841 -1.363342 1.316954 0.714814 0.266783 1.133631 -0.990961 0.250517 0.000000 0.000000 0.000000 0.785815 1.083783 0.277434 2.695498 -0.676913 -0.245026 18.019581 -15.591456 2.467403 0.000000 0.000000 0.000000 1.101900 0.943796 0.169723 2.922876 -3.591935 -11.946964 -1.432699 -1.462851 -1.604991 3.890527 1.703108 -60.362575 -0.193602 -7.917161 0.111716 0.000000 0.000000 0.000000 1.111997 0.832217 0.220739 2.102148 2.491232 16.395666 0.574638 2.075468 -2.217832 -6.793386 13.779794 62.539808 0.616745 25.714043 0.721069 0.000000 0.000000 0.000000 
